<svg xmlns="http://www.w3.org/2000/svg" xmlns:xlink="http://www.w3.org/1999/xlink" width="1200" height="1200" viewBox="0 0 1200 1200">
  <defs>
    <radialGradient id="radial-gradient" cx="0.5" cy="0.5" r="0.362" gradientUnits="objectBoundingBox">
      <stop offset="0" stop-color="#008c91"/>
      <stop offset="1" stop-color="#00a79b"/>
    </radialGradient>
    <clipPath id="clip-logo">
      <rect width="1200" height="1200"/>
    </clipPath>
  </defs>
  <g id="logo" clip-path="url(#clip-logo)">
    <g id="Path_7" data-name="Path 7" transform="translate(313 36.103)" fill="url(#radial-gradient)">
      <path d="M 250 485 C 120.420539855957 485 15 379.5794677734375 15 250 C 15 120.420539855957 120.420539855957 15 250 15 C 379.5794677734375 15 485 120.420539855957 485 250 C 485 379.5794677734375 379.5794677734375 485 250 485 Z" stroke="none"/>
      <path d="M 250 30 C 128.6915588378906 30 30 128.6915588378906 30 250 C 30 371.3084716796875 128.6915588378906 470 250 470 C 371.3084716796875 470 470 371.3084716796875 470 250 C 470 128.6915588378906 371.3084716796875 30 250 30 M 250 0 C 388.0711669921875 0 500 111.9288330078125 500 250 C 500 388.0711669921875 388.0711669921875 500 250 500 C 111.9288330078125 500 0 388.0711669921875 0 250 C 0 111.9288330078125 111.9288330078125 0 250 0 Z" stroke="none" fill="#00e8c0"/>
    </g>
    <path id="Path_8" data-name="Path 8" d="M322.247,451.287s-6.859-100.257,85.329-178.4,217.818-38.978,335.779-116.066C803.987,117.2,851.739,54.734,906.66-47.594s65.82-167.973,56.378-204.893-56.981-1.385-94.146,57.212S804.7-74.5,713.4-19.423,480.539,39.9,426.405,65.024s-80.024,2.284,54.134-18.274S672.468-42.839,682.953-92.59c0-22.918-94.146,4.568-230.658,0S284.751-81.3,228.443-30.684c-42.636,38.328-72.313,137.822-86.83,219.058-25.724,143.942-64.146,286.67-64.146,286.67" transform="translate(78.228 688.853)" fill="none" stroke="#005558" stroke-linecap="round" stroke-width="40"/>
    <g id="Ellipse_5" data-name="Ellipse 5" transform="translate(503 151.603)" fill="none" stroke="#00e8c0" stroke-width="30">
      <circle cx="60" cy="60" r="60" stroke="none"/>
      <circle cx="60" cy="60" r="45" fill="none"/>
    </g>
    <g id="Ellipse_6" data-name="Ellipse 6" transform="translate(383 285.603)" fill="none" stroke="#00e8c0" stroke-width="30">
      <circle cx="60" cy="60" r="60" stroke="none"/>
      <circle cx="60" cy="60" r="45" fill="none"/>
    </g>
    <g id="Ellipse_7" data-name="Ellipse 7" transform="translate(623 285.603)" fill="none" stroke="#00e8c0" stroke-width="30">
      <circle cx="60" cy="60" r="60" stroke="none"/>
      <circle cx="60" cy="60" r="45" fill="none"/>
    </g>
    <line id="Line_4" data-name="Line 4" y2="271.2" transform="translate(563.5 264.103)" fill="none" stroke="#00e8c0" stroke-width="30"/>
    <path id="Path_9" data-name="Path 9" d="M0,0,.5,120.719" transform="translate(443 375.103)" fill="none" stroke="#00e8c0" stroke-width="30"/>
    <path id="Path_10" data-name="Path 10" d="M0,0,.5,120.719" transform="translate(682.5 375.103)" fill="none" stroke="#00e8c0" stroke-width="30"/>
    <g id="Path_11" data-name="Path 11" transform="translate(666.094 483.164)" fill="#00e8c0">
      <path d="M 2.155581474304199 28.77782440185547 L 2.155581474304199 -3.43641996383667 L 31.09272384643555 12.72742938995361 C 29.61087226867676 13.6088342666626 23.94979858398438 16.97249221801758 18.37727165222168 20.23693084716797 C 12.6249532699585 23.60667991638184 4.010578155517578 27.86702156066895 2.155581474304199 28.77782440185547 Z" stroke="none"/>
      <path d="M 2.405582427978516 -3.010416030883789 L 2.405582427978516 28.37621116638184 C 4.82508659362793 27.18374061584473 12.81807327270508 23.20381164550781 18.25091171264648 20.02122116088867 C 23.43132781982422 16.98647880554199 28.68834686279297 13.86593914031982 30.59219360351562 12.73419761657715 L 2.405582427978516 -3.010416030883789 M 1.905582427978516 -3.862428665161133 L 31.59312057495117 12.7205810546875 C 31.59312057495117 12.7205810546875 25.03097152709961 16.62887191772461 18.50364112854004 20.45264053344727 C 11.97631072998047 24.27640151977539 1.905582427978516 29.17859077453613 1.905582427978516 29.17859077453613 L 1.905582427978516 -3.862428665161133 Z" stroke="none" fill="#00e8c0"/>
    </g>
    <g id="Path_12" data-name="Path 12" transform="translate(426.539 483.164)" fill="#00e8c0">
      <path d="M 31.76562118530273 28.78431129455566 C 29.87535285949707 27.89058685302734 20.89552307128906 23.61478233337402 14.90507221221924 20.23491096496582 C 9.126348495483398 16.9744758605957 3.781616687774658 13.53240013122559 2.391754150390625 12.62813758850098 L 31.76562118530273 -3.440703153610229 L 31.76562118530273 28.78431129455566 Z" stroke="none"/>
      <path d="M 31.51562118530273 -3.018987655639648 L 2.879264831542969 12.64640140533447 C 4.670042037963867 13.80493831634521 9.660970687866211 16.98907089233398 15.02792167663574 20.01716995239258 C 20.69553756713867 23.21490478515625 29.04564666748047 27.21715545654297 31.51562118530273 28.38925170898438 L 31.51562118530273 -3.018987655639648 M 32.01562118530273 -3.862428665161133 L 32.01562118530273 29.17859077453613 C 32.01562118530273 29.17859077453613 21.55940246582031 24.27640151977539 14.78222274780273 20.45264053344727 C 8.005041122436523 16.62887191772461 1.905582427978516 12.609130859375 1.905582427978516 12.609130859375 L 32.01562118530273 -3.862428665161133 Z" stroke="none" fill="#00e8c0"/>
    </g>
  </g>
</svg>
